<?xml version="1.0" encoding="UTF-8"?>
<svg id="Layer_1" data-name="Layer 1" xmlns="http://www.w3.org/2000/svg" viewBox="0 0 768 768">
  <defs>
    <style>
      .cls-1 {
        fill: #20abdc;
      }

      .cls-2 {
        fill: #dcc927;
      }

      .cls-3 {
        fill: #e76918;
      }

      .cls-4 {
        fill: #5ab52c;
      }
    </style>
  </defs>
  <rect class="cls-4" width="320" height="320" rx="73.57" ry="73.57"/>
  <path class="cls-2" d="M73.57,448h182.43c35.32,0,64,28.68,64,64v192c0,35.32-28.68,64-64,64H64C28.68,768,0,739.32,0,704v-182.43C0,480.97,32.97,448,73.57,448Z"/>
  <path class="cls-1" d="M521.57,0h182.43c35.32,0,64,28.68,64,64v192c0,35.32-28.68,64-64,64h-192c-35.32,0-64-28.68-64-64V73.57c0-40.61,32.97-73.57,73.57-73.57Z"/>
  <path class="cls-3" d="M521.57,448h182.43c35.32,0,64,28.68,64,64v192c0,35.32-28.68,64-64,64h-192c-35.32,0-64-28.68-64-64v-182.43c0-40.61,32.97-73.57,73.57-73.57Z"/>
</svg>